<svg version="1.1" id="Layer_1" xmlns="http://www.w3.org/2000/svg" xmlns:xlink="http://www.w3.org/1999/xlink" x="0px" y="0px"
	 width="100%" viewBox="0 0 172 114" enable-background="new 0 0 172 114" xml:space="preserve">
<path fill="#000000" opacity="1.000000" stroke="none" 
	d="
M65.000000,115.000000 
	C43.702755,115.000000 22.405510,115.000000 1.054132,115.000000 
	C1.054132,77.100433 1.054132,39.200775 1.054132,1.000000 
	C27.686806,1.000000 54.374744,1.000000 81.867477,1.248857 
	C79.542870,6.401546 76.306892,11.243992 73.406189,16.279566 
	C73.000511,16.983818 74.197708,19.669558 74.725998,19.691662 
	C80.693047,19.941309 86.674370,19.849829 93.054367,19.849829 
	C89.687798,12.841150 86.843903,6.920576 84.000000,1.000001 
	C113.610626,1.000000 143.221252,1.000000 172.915939,1.000000 
	C172.915939,38.999931 172.915939,76.999939 172.915939,115.000000 
	C163.568710,115.000000 154.253021,115.000000 144.387085,114.618141 
	C143.458633,112.860268 143.330551,111.347168 142.663254,110.129578 
	C136.431091,98.758095 130.196045,87.386215 123.774193,76.121422 
	C120.055305,69.597977 115.992569,63.270546 112.054504,56.495293 
	C107.373230,47.623291 102.824440,39.051575 97.963806,30.660498 
	C97.208076,29.355844 95.062675,28.211943 93.500580,28.130430 
	C86.833412,27.782530 80.140839,27.960115 73.463821,27.747984 
	C69.314819,27.616171 66.724289,29.164825 65.176682,33.168522 
	C64.133934,35.866123 62.171200,38.202690 60.664169,40.727116 
	C50.768482,57.303352 40.878181,73.882820 31.000406,90.469734 
	C26.928024,97.308136 22.891008,104.167587 18.401943,111.754265 
	C19.751530,112.101204 21.456804,112.904877 23.169773,112.921616 
	C35.848213,113.045570 48.528873,112.957207 61.206596,113.115349 
	C62.478703,113.131218 63.735889,114.343147 65.000000,115.000000 
z"/>
<path fill="#464646" opacity="1.000000" stroke="none" 
	d="
M65.460632,115.000000 
	C63.735889,114.343147 62.478703,113.131218 61.206596,113.115349 
	C48.528873,112.957207 35.848213,113.045570 23.169773,112.921616 
	C21.456804,112.904877 19.751530,112.101204 18.401943,111.754265 
	C22.891008,104.167587 26.928024,97.308136 31.000406,90.469734 
	C40.878181,73.882820 50.768482,57.303352 60.664169,40.727116 
	C62.171200,38.202690 64.133934,35.866123 65.176682,33.168522 
	C66.724289,29.164825 69.314819,27.616171 73.463821,27.747984 
	C80.140839,27.960115 86.833412,27.782530 93.500580,28.130430 
	C95.062675,28.211943 97.208076,29.355844 97.963806,30.660498 
	C102.824440,39.051575 107.373230,47.623291 111.857758,56.816448 
	C109.440750,60.583748 106.595337,60.238907 103.342857,59.328102 
	C101.330803,58.764664 99.067253,59.099339 96.548248,59.031277 
	C95.407654,58.071346 94.486801,57.195148 93.887428,56.136868 
	C90.193604,49.614868 86.572281,43.051804 82.561501,35.845985 
	C70.323936,56.588364 58.458675,76.699715 45.883919,98.013634 
	C53.312263,98.013634 59.087055,97.936203 64.857231,98.065224 
	C66.401443,98.099747 68.806793,98.283012 69.322540,99.220261 
	C72.139046,104.338562 74.489388,109.713379 77.000000,115.000000 
	C73.307091,115.000000 69.614182,115.000000 65.460632,115.000000 
z"/>
<path fill="#454747" opacity="1.000000" stroke="none" 
	d="
M96.916595,59.030846 
	C99.067253,59.099339 101.330803,58.764664 103.342857,59.328102 
	C106.595337,60.238907 109.440750,60.583748 111.887833,57.176052 
	C115.992569,63.270546 120.055305,69.597977 123.774193,76.121422 
	C130.196045,87.386215 136.431091,98.758095 142.663254,110.129578 
	C143.330551,111.347168 143.458633,112.860268 143.918427,114.618141 
	C141.299988,115.000000 138.599976,115.000000 135.540283,114.736038 
	C134.876862,114.253181 134.573120,114.034286 134.269379,113.815399 
	C134.179596,114.210266 134.089798,114.605133 134.000000,115.000000 
	C131.958328,115.000000 129.916672,115.000000 127.527794,114.736038 
	C126.876854,114.253189 126.573120,114.034294 126.269379,113.815399 
	C126.179596,114.210266 126.089806,114.605133 126.000000,115.000000 
	C124.285645,115.000000 122.571281,115.000000 120.518761,114.736038 
	C119.876854,114.253181 119.573120,114.034286 119.269386,113.815399 
	C119.179596,114.210266 119.089798,114.605133 119.000000,115.000000 
	C116.629440,115.000000 114.258888,115.000000 111.534454,114.736038 
	C110.876854,114.253181 110.573120,114.034286 110.269379,113.815399 
	C110.179573,114.210266 110.089783,114.605133 110.000000,115.000000 
	C107.958336,115.000000 105.916664,115.000000 103.527802,114.736023 
	C102.876846,114.253151 102.573090,114.034248 102.269333,113.815346 
	C102.179558,114.210228 102.089783,114.605118 102.000000,115.000000 
	C99.299988,115.000000 96.599968,115.000000 93.486038,114.625725 
	C92.420868,112.752068 91.881973,111.191193 91.100395,109.763130 
	C85.309265,99.181747 79.469864,88.626778 74.144943,78.029076 
	C80.856194,78.373299 87.068123,78.751953 93.238846,79.492271 
	C95.372047,84.026131 97.505829,88.220245 99.739471,92.360474 
	C100.731125,94.198593 101.627083,97.119286 103.082153,97.482445 
	C107.387177,98.556908 111.949150,98.601852 118.092957,99.218262 
	C113.846153,91.585838 110.396362,85.385818 107.221558,78.891609 
	C113.072456,78.891113 114.591202,75.942551 113.798813,70.924324 
	C113.542419,69.300545 113.669052,67.589912 113.811844,65.935524 
	C114.038498,63.309574 112.842545,62.404110 110.330452,62.365475 
	C105.845634,62.296509 101.364105,62.013897 96.883209,61.471657 
	C96.895676,60.425415 96.906136,59.728130 96.916595,59.030846 
z"/>
<path fill="#000000" opacity="1.000000" stroke="none" 
	d="
M73.645630,78.063507 
	C79.469864,88.626778 85.309265,99.181747 91.100395,109.763130 
	C91.881973,111.191193 92.420868,112.752068 93.036064,114.625725 
	C87.977905,115.000000 82.955818,115.000000 77.466858,115.000000 
	C74.489388,109.713379 72.139046,104.338562 69.322540,99.220261 
	C68.806793,98.283012 66.401443,98.099747 64.857231,98.065224 
	C59.087055,97.936203 53.312263,98.013634 45.883919,98.013634 
	C58.458675,76.699715 70.323936,56.588364 82.561501,35.845985 
	C86.572281,43.051804 90.193604,49.614868 93.887428,56.136868 
	C94.486801,57.195148 95.407654,58.071346 96.548256,59.031277 
	C96.906136,59.728130 96.895676,60.425415 96.477013,61.571957 
	C92.519386,62.346939 88.956039,62.569633 85.427063,63.046638 
	C83.913078,63.251278 81.760590,63.536976 81.118767,64.555206 
	C78.379242,68.901352 76.095604,73.534851 73.645630,78.063507 
z"/>
<path fill="#5CC8E9" opacity="1.000000" stroke="none" 
	d="
M83.666672,1.000001 
	C86.843903,6.920576 89.687798,12.841150 93.054367,19.849829 
	C86.674370,19.849829 80.693047,19.941309 74.725998,19.691662 
	C74.197708,19.669558 73.000511,16.983818 73.406189,16.279566 
	C76.306892,11.243992 79.542870,6.401546 82.336136,1.248857 
	C82.444443,1.000000 82.888893,1.000000 83.666672,1.000001 
z"/>
<path fill="#000000" opacity="1.000000" stroke="none" 
	d="
M102.250000,115.000000 
	C102.089783,114.605118 102.179558,114.210228 102.269333,113.815346 
	C102.573090,114.034248 102.876846,114.253151 103.090302,114.736023 
	C103.000000,115.000000 102.500000,115.000000 102.250000,115.000000 
z"/>
<path fill="#000000" opacity="1.000000" stroke="none" 
	d="
M110.250000,115.000000 
	C110.089783,114.605133 110.179573,114.210266 110.269379,113.815399 
	C110.573120,114.034286 110.876854,114.253181 111.090294,114.736038 
	C111.000000,115.000000 110.500000,115.000000 110.250000,115.000000 
z"/>
<path fill="#000000" opacity="1.000000" stroke="none" 
	d="
M119.250000,115.000000 
	C119.089798,114.605133 119.179596,114.210266 119.269386,113.815399 
	C119.573120,114.034286 119.876854,114.253181 120.090302,114.736038 
	C120.000000,115.000000 119.500000,115.000000 119.250000,115.000000 
z"/>
<path fill="#000000" opacity="1.000000" stroke="none" 
	d="
M126.250000,115.000000 
	C126.089806,114.605133 126.179596,114.210266 126.269379,113.815399 
	C126.573120,114.034294 126.876854,114.253189 127.090294,114.736038 
	C127.000000,115.000000 126.500000,115.000000 126.250000,115.000000 
z"/>
<path fill="#000000" opacity="1.000000" stroke="none" 
	d="
M134.250000,115.000000 
	C134.089798,114.605133 134.179596,114.210266 134.269379,113.815399 
	C134.573120,114.034286 134.876862,114.253181 135.090302,114.736038 
	C135.000000,115.000000 134.500000,115.000000 134.250000,115.000000 
z"/>
<path fill="#54C5E7" opacity="1.000000" stroke="none" 
	d="
M74.144943,78.029076 
	C76.095604,73.534851 78.379242,68.901352 81.118767,64.555206 
	C81.760590,63.536976 83.913078,63.251278 85.427063,63.046638 
	C88.956039,62.569633 92.519386,62.346939 96.475006,61.920914 
	C101.364105,62.013897 105.845634,62.296509 110.330452,62.365475 
	C112.842545,62.404110 114.038498,63.309574 113.811844,65.935524 
	C113.669052,67.589912 113.542419,69.300545 113.798813,70.924324 
	C114.591202,75.942551 113.072456,78.891113 106.772163,78.810608 
	C101.791870,79.059402 97.535965,79.095009 93.280060,79.130608 
	C87.068123,78.751953 80.856194,78.373299 74.144943,78.029076 
z"/>
<path fill="#000000" opacity="1.000000" stroke="none" 
	d="
M93.238846,79.492271 
	C97.535965,79.095009 101.791870,79.059402 106.497177,79.104797 
	C110.396362,85.385818 113.846153,91.585838 118.092957,99.218262 
	C111.949150,98.601852 107.387177,98.556908 103.082153,97.482445 
	C101.627083,97.119286 100.731125,94.198593 99.739471,92.360474 
	C97.505829,88.220245 95.372047,84.026131 93.238846,79.492271 
z"/>
</svg>